<svg id="图层_1" data-name="图层 1" xmlns="http://www.w3.org/2000/svg" viewBox="0 0 307.2 307.2"><path d="M409.06,490.6q0-75.57-.06-151.14c0-2.06.4-2.46,2.46-2.46q151.14.09,302.28,0c2.06,0,2.46.4,2.46,2.46q-.09,151.14,0,302.28c0,2.06-.4,2.46-2.46,2.46q-151.14-.09-302.28,0c-2.06,0-2.46-.4-2.46-2.46Q409.11,566.17,409.06,490.6Z" transform="translate(-409 -337)" style="fill:#fefefe"/><path d="M524.45,390.44c6.79,0,12,0,17.18,0,4.82-.05,9.62-.13,14.22,1.71a5.1,5.1,0,0,0,2.37.09c7.16-.86,14.1.91,21.07,1.94,4,.6,8.16,1.1,12.15,1.45,10.33.9,20.47,2.69,30.68,4.29,6.27,1,12.64,1.58,19,2.07a58,58,0,0,1,14.36,3.26c3.21,1.11,6.63,1,9.76,2.5,2.61,1.26,4.44,2.81,5.37,5.59,1.39,4.21,4,7.82,6,11.73a16.39,16.39,0,0,1,1.71,5.14c1.47,10.55,1.46,21.17,1.2,31.78-.15,6.2,0,12.58-1.42,18.53-1,4.09-.39,8.46-1.83,12-1.54,3.75-2,8.53-6.23,11-1.84,1.09-1.49,3.72-3.26,5.06-3.91,3-6.22,7.25-9.18,11-5.07,6.47-9.26,13.91-16.06,18.83-4.56,3.3-9.41,5.9-15.5,6.37a144.27,144.27,0,0,0-21.45,2.79,8.21,8.21,0,0,1-1.79,0c-10.25,0-20.51.25-30.73-.65-3.83-.34-7.28-2.53-11.21-2.71-.75,0-1.55-.23-2.33-.23a148.5,148.5,0,0,1-27.14-2.8c-6.49-1.17-12.52-4-19.06-4.59-4.47-.44-8.45-2.63-13-3-2.6-.2-5.2-1.87-7.54-3.31a16.65,16.65,0,0,0-3.34-1.51c-6.44-2.34-12.29-5.8-18.07-9.45-3.38-2.13-6.5-4.68-10.27-6.24-4.45-1.84-7.31-5.78-9.9-9.47-3.4-4.87-8.22-8.4-11.44-13.41a42.2,42.2,0,0,1-5.12-10.58c-1.18-3.85-2.39-7.68-3.66-11.5-1.07-3.21-1.42-6.95-.16-9.58,1.85-3.85,2.28-8.22,4.93-11.77s3.13-8.51,5.95-12.22a36.6,36.6,0,0,1,7.74-7.58c2.49-1.81,4.36-4.34,6.75-6.36,5.23-4.4,10.59-8.64,16-12.77,4.69-3.56,9.32-7.14,13.69-11.13,3.57-3.27,8.43-5,13.39-5.67C507.53,389.81,516.8,390.73,524.45,390.44Z" transform="translate(-409 -337)"/><path d="M524.75,392.84c6.79,0,12,.14,17.19,0,9.22-.31,18.19,2.78,27.45,1.84,6.86,3.13,14.42,2.28,21.6,3.26,6.27.86,12.6,2,19,2.18,3.79.11,7.38,1.7,11.2,2,4,.31,7.94,1.14,11.92,1.53,7.57.72,15.08,1.6,22.32,4.13a19.6,19.6,0,0,0,6.26,1.33,7,7,0,0,1,6.49,5c1.36,4.18,4,7.66,6,11.52a16.57,16.57,0,0,1,1.77,5.15A188.06,188.06,0,0,1,677.12,461c-.21,6.32,0,12.8-1.44,18.86-1,4.1-.93,8.14-1.71,12.11a18.27,18.27,0,0,1-3.45,7.17c-2.4,3.1-4.17,6.68-7.24,9.29s-5.12,5.79-7.28,9.1-5.17,6.34-7.38,9.77c-3.22,5-7.2,9.2-12.53,11.67-3.13,1.45-6.19,3.11-10,3.38A187,187,0,0,0,604.25,545c-2.43.46-5,.08-7.52.16-8.06.26-16.1-.35-24.15-.6a6.84,6.84,0,0,1-2-.51c-4-1.41-8.15-1.72-12.39-2-7.69-.57-15.36-1.45-23-2.57-8.89-1.3-17.3-4.28-26.06-6a70.58,70.58,0,0,1-18.2-6.27c-4.78-2.43-9.95-4.58-14.79-7.09A103.72,103.72,0,0,1,464,512.21c-1.69-1.19-3.87-1.23-5.36-2.85-6.33-6.86-12.86-13.57-18.39-21.09a25.75,25.75,0,0,1-3.83-8,109.92,109.92,0,0,0-4.27-12.85c-.76-1.78.35-3,.36-4.56,0-2.81.39-6.15,1.52-8.18,1.42-2.52,1.16-5.58,3.19-7.73,2.6-2.74,2.62-6.76,4.62-9.8a30.89,30.89,0,0,1,7.42-7.71,9.68,9.68,0,0,0,1.58-1.33,110.77,110.77,0,0,1,16.06-14c6.82-5.09,13.52-10.25,20-15.74,3.53-3,8.25-4.39,13.15-5C508.85,392.32,517.6,393.28,524.75,392.84Z" transform="translate(-409 -337)" style="fill:#fbc984"/><path d="M488.23,463.17v.9c0,6.16-3.46,9.37-9.83,9.15-.8,0-1.84,0-1.9-.87,0-.66.75-1.43,1.62-1.51,2-.19,3.68-1.22,5.55-1.63s2.08-1.44,2.17-2.91-.7-1.84-2.11-2.17c-3.69-.88-5.77-8.07-3.18-11,1.19-1.37,1.06-1.75-.42-2.68-2.45-1.54-5.59-1.55-7.74-3.65-.46-.45-1.32-.74-.72-1.65.44-.66,1.37-1.08,1.77-.58,2.05,2.6,5.39,2.56,8,3.83,5.44,2.63,6.08,7.22,6.74,12.11A20.11,20.11,0,0,1,488.23,463.17Z" transform="translate(-409 -337)"/><path d="M588.45,428.22c-6.68,0-10.42-3.82-10.85-10.57a11.58,11.58,0,0,0-.14-2.37c-.17-.62-1.45-.94-.37-1.86.46-.39.74-.68,1.48-.31s1.52.88,1.42,1.94c-.21,2.11.52,4,1.1,6,.42,1.45.73,1,1.73.7,3-1,6-1.4,9,.54,1.87,1.22,2.46-.51,2.52-1.82.1-1.84,1.2-3.24,1.72-4.89a1.15,1.15,0,0,1,1.84-.62c.89.5.92,1.15.53,1.64-1.85,2.35-1.78,5.42-3.24,8C593.36,427.82,591,428.33,588.45,428.22Z" transform="translate(-409 -337)"/><path d="M656.16,442.41c0-4.41,3.32-7.23,8-7.58.4,0,.8,0,1.2,0,1.35,0,3.24-.16,3.24,1.53s-1.92.8-2.87.79a15,15,0,0,0-4.29.82c-2.91.82-3.13,2.35-.84,4.58,3.3,3.23,3.49,7.11,2.1,11.08-.42,1.2.19,1.42.64,1.85a34.23,34.23,0,0,0,3,2.38c.67.51.49.92-.06,1.37s-.67.92-1.39.24c-2.15-2-5.25-2.71-6.9-5.56a6.48,6.48,0,0,1-1.21-3.74A26.4,26.4,0,0,0,656.16,442.41Z" transform="translate(-409 -337)"/><path d="M559.37,510.94a14.28,14.28,0,0,1,7.82,2.59A1.47,1.47,0,0,1,568,515c-.25,1.54.38,2,1.92,2.12.72.06,3,.45,1.05,2.44-.32.33,1,2.3,1.64,3.49a5.59,5.59,0,0,0,1.11,1.68c.78.69.8,1.12,0,1.85-1.08,1-1.43-.18-1.77-.6a47.49,47.49,0,0,1-3.33-4.78c-.72-1.21-1.54-2.09-3-1.82-2.74.51-4.31-1.42-6.11-2.85-.49-.39-1.47-.77-.44-1.78a1.29,1.29,0,0,1,2.16.16c.61,1,1.61,1.34,2.43,1.93.46.33,1.49.45,1.86-.28s-.1-1.08-.79-1.57a7.78,7.78,0,0,0-6.06-1.49c-4.47.77-8.93,1.53-13.41,2.25-.76.12-1.86.26-2.08-.65s.7-1.52,1.56-1.7a88.22,88.22,0,0,1,9.62-1.74C556.22,511.51,558,511.08,559.37,510.94Z" transform="translate(-409 -337)"/><path d="M628.36,514c4.25.39,8.16,1.65,10.15,6.08.42.93.79,2.31-.36,2.81s-1.48-.57-1.85-1.66c-1.2-3.58-4.34-4.34-7.6-4.84a2.38,2.38,0,0,0-2.87,1.88c-.33,1-.93,1.53-2,.89s-.67-1.18-.14-2C624.84,515.54,625.8,513.77,628.36,514Z" transform="translate(-409 -337)"/><path d="M484.69,453.72c-.79,2.32,1.24,4.07,1.12,6.25,0,.66.51,1.7-.82,1.83-.86.09-1.47,0-1.8-1s-1.16-1.85-1.39-2.85C481.29,455.7,481.66,453.87,484.69,453.72Z" transform="translate(-409 -337)" style="fill:#fbc984"/><path d="M583.08,424.32a12.8,12.8,0,0,1,5.81-.92c1.18,0,2.17.66,2.2,1.52,0,1.08-1.23.93-2.08.9C587,425.74,584.87,426.32,583.08,424.32Z" transform="translate(-409 -337)" style="fill:#fbc984"/><path d="M659.17,444.51c2.05,2.11,1.88,4.36,1.77,6.56,0,.58.45,1.61-.61,1.62-.9,0-1.18-.83-1.17-1.71C659.18,448.92,659.17,446.86,659.17,444.51Z" transform="translate(-409 -337)" style="fill:#fbc984"/></svg>