<?xml version="1.0" standalone="no"?><?xml-stylesheet type="text/css" href="https://www.processon.com/themes/default/mind/icons/icons.css" ?><!DOCTYPE svg PUBLIC "-//W3C//DTD SVG 1.1//EN" "http://www.w3.org/Graphics/SVG/1.1/DTD/svg11.dtd">
<svg xmlns="http://www.w3.org/2000/svg" version="1.1" xlink="http://www.w3.org/1999/xlink" id="mind-svg-con" width="1071px" height="555.0000076293945px" style="position: absolute; left: 0px; top: 0px; width: 1071px; height: 555px; background: rgb(246, 246, 246); z-index: 999;"><defs></defs><g id="svgbackgroundid"><defs></defs><rect x="0" y="0" width="1071" height="555.0000076293945" fill="#f6f6f6"></rect></g><g transform="translate(-9861, -9661.999809265137)" id="sdjakdjak3"><defs></defs><g class="svg-topic-con" transform="translate(0.5,0.5)"><path part="right" sub="true" id="line_9f4f50349524" d="M 10000 9939.999816894531 C 10000 9939.999816894531 10010 9794.999809265137 10159 9794.999809265137" stroke="#8A8A8A" fill="none" stroke-width="2"></path><path part="right" sub="true" id="line_3c814f478555" d="M 10000 9939.999816894531 C 10000 9939.999816894531 10010 10057.499816894531 10159 10057.499816894531" stroke="#8A8A8A" fill="none" stroke-width="2"></path></g><g class="svg-connection-con" transform="translate(0.5,0.5)"></g><g class="svg-freesums-con" transform="translate(0.5,0.5)"></g><g class="svg-freebos-con" transform="translate(0.5,0.5)"></g></g><g id="3c814f478555"><rect x="298" y="376.60001373291016" rx="4px" ry="4px" width="154" height="38" style="fill: #ffffff; stroke:#444;stroke-width:1px;"></rect><g><text text-anchor="start" align="top" anchor="start" font-size="16px" font-weight="normal" fill="rgb(35, 40, 45)" style="font-size:16px;font-family: 微软雅黑;color:#23282D;font-style:normal;text-align:left;font-weight:normal;font-style: normal;"><tspan x="319" y="400.87500762939453"><tspan>创建对象的步骤</tspan></tspan></text></g></g><g id="b3e55d0c41d7"><rect x="476" y="266.00000762939453" rx="1px" ry="1px" width="296" height="21" style="fill: transparent; stroke:none;"></rect><g><text text-anchor="start" align="top" anchor="start" font-size="13px" font-weight="400" fill="rgb(35, 40, 45)" style="font-size:13px;font-family: 微软雅黑;color:#23282D;font-style:normal;text-align:left;font-weight:400;font-style: normal;"><tspan x="484" y="281.9874954223633"><tspan>1.判断对象对应的类是否加载、链接、初始化</tspan></tspan></text></g><path d="M906.372741 0.018963C960.777481 0.075852 1005.131852 44.126815 1005.131852 98.49363L1005.131852 98.49363 1005.131852 98.49363 1005.131852 925.525333C1005.131852 979.892148 960.777481 1024 906.221037 1024L117.835852 1024C63.16563 1024 18.868148 979.892148 18.868148 925.525333L18.868148 98.49363C18.868148 44.126815 63.222519 0.018963 117.835852 0.018963M925.980444 74.088296 93.790815 74.088296 93.790815 945.170963 925.866667 945.170963 925.904593 945.170963 925.904593 74.088296 925.980444 74.088296 925.980444 74.088296ZM217.353481 338.640593 449.744593 338.640593C454.428444 338.640593 458.258963 334.829037 458.258963 330.145185L458.258963 264.438519 458.258963 263.338667C458.258963 258.673778 454.428444 254.748444 449.85837 254.748444L217.353481 254.748444C212.612741 254.748444 208.839111 258.673778 208.839111 263.338667L208.839111 330.145185C208.839111 334.829037 212.612741 338.640593 217.353481 338.640593L217.353481 338.640593 217.353481 338.640593ZM217.353481 554.799407 673.526519 554.799407C678.229333 554.799407 682.040889 550.987852 682.040889 546.304L682.040889 480.57837C682.154667 480.161185 682.154667 479.819852 682.154667 479.440593 682.154667 474.775704 678.381037 470.964148 673.754074 470.964148L217.353481 470.964148C212.612741 470.964148 208.839111 474.775704 208.839111 479.440593L208.839111 546.360889C208.839111 550.930963 212.612741 554.799407 217.353481 554.799407L217.353481 554.799407 217.353481 554.799407ZM217.353481 770.901333 806.532741 770.901333C811.178667 770.901333 815.047111 767.089778 815.047111 762.405926L815.047111 696.699259C815.104 696.263111 815.104 695.940741 815.104 695.542519 815.104 690.87763 811.33037 687.066074 806.760296 687.066074L217.353481 687.066074C212.612741 687.066074 208.839111 690.87763 208.839111 695.542519L208.839111 762.462815C208.839111 767.089778 212.612741 770.901333 217.353481 770.901333L217.353481 770.901333 217.353481 770.901333Z" fill="#23282D" transform="translate(747.7625122070312, 270.0875015258789) scale(0.013671875)"></path></g><g id="e855de50e497"><rect x="476" y="331.4625015258789" rx="1px" ry="1px" width="140" height="21" style="fill: transparent; stroke:none;"></rect><g><text text-anchor="start" align="top" anchor="start" font-size="13px" font-weight="400" fill="rgb(35, 40, 45)" style="font-size:13px;font-family: 微软雅黑;color:#23282D;font-style:normal;text-align:left;font-weight:400;font-style: normal;"><tspan x="484" y="347.44998931884766"><tspan>2.为对象分配内存</tspan></tspan></text></g><path d="M906.372741 0.018963C960.777481 0.075852 1005.131852 44.126815 1005.131852 98.49363L1005.131852 98.49363 1005.131852 98.49363 1005.131852 925.525333C1005.131852 979.892148 960.777481 1024 906.221037 1024L117.835852 1024C63.16563 1024 18.868148 979.892148 18.868148 925.525333L18.868148 98.49363C18.868148 44.126815 63.222519 0.018963 117.835852 0.018963M925.980444 74.088296 93.790815 74.088296 93.790815 945.170963 925.866667 945.170963 925.904593 945.170963 925.904593 74.088296 925.980444 74.088296 925.980444 74.088296ZM217.353481 338.640593 449.744593 338.640593C454.428444 338.640593 458.258963 334.829037 458.258963 330.145185L458.258963 264.438519 458.258963 263.338667C458.258963 258.673778 454.428444 254.748444 449.85837 254.748444L217.353481 254.748444C212.612741 254.748444 208.839111 258.673778 208.839111 263.338667L208.839111 330.145185C208.839111 334.829037 212.612741 338.640593 217.353481 338.640593L217.353481 338.640593 217.353481 338.640593ZM217.353481 554.799407 673.526519 554.799407C678.229333 554.799407 682.040889 550.987852 682.040889 546.304L682.040889 480.57837C682.154667 480.161185 682.154667 479.819852 682.154667 479.440593 682.154667 474.775704 678.381037 470.964148 673.754074 470.964148L217.353481 470.964148C212.612741 470.964148 208.839111 474.775704 208.839111 479.440593L208.839111 546.360889C208.839111 550.930963 212.612741 554.799407 217.353481 554.799407L217.353481 554.799407 217.353481 554.799407ZM217.353481 770.901333 806.532741 770.901333C811.178667 770.901333 815.047111 767.089778 815.047111 762.405926L815.047111 696.699259C815.104 696.263111 815.104 695.940741 815.104 695.542519 815.104 690.87763 811.33037 687.066074 806.760296 687.066074L217.353481 687.066074C212.612741 687.066074 208.839111 690.87763 208.839111 695.542519L208.839111 762.462815C208.839111 767.089778 212.612741 770.901333 217.353481 770.901333L217.353481 770.901333 217.353481 770.901333Z" fill="#23282D" transform="translate(591.7625122070312, 335.5499954223633) scale(0.013671875)"></path></g><g id="4ee7045da8a0"><rect x="639.7625122070312" y="292.18750762939453" rx="1px" ry="1px" width="116" height="21" style="fill: transparent; stroke:none;"></rect><g><text text-anchor="start" align="top" anchor="start" font-size="13px" font-weight="400" fill="rgb(35, 40, 45)" style="font-size:13px;font-family: 微软雅黑;color:#23282D;font-style:normal;text-align:left;font-weight:400;font-style: normal;"><tspan x="647.7625122070312" y="308.1749954223633"><tspan>如果内存规整</tspan></tspan></text></g><path d="M906.372741 0.018963C960.777481 0.075852 1005.131852 44.126815 1005.131852 98.49363L1005.131852 98.49363 1005.131852 98.49363 1005.131852 925.525333C1005.131852 979.892148 960.777481 1024 906.221037 1024L117.835852 1024C63.16563 1024 18.868148 979.892148 18.868148 925.525333L18.868148 98.49363C18.868148 44.126815 63.222519 0.018963 117.835852 0.018963M925.980444 74.088296 93.790815 74.088296 93.790815 945.170963 925.866667 945.170963 925.904593 945.170963 925.904593 74.088296 925.980444 74.088296 925.980444 74.088296ZM217.353481 338.640593 449.744593 338.640593C454.428444 338.640593 458.258963 334.829037 458.258963 330.145185L458.258963 264.438519 458.258963 263.338667C458.258963 258.673778 454.428444 254.748444 449.85837 254.748444L217.353481 254.748444C212.612741 254.748444 208.839111 258.673778 208.839111 263.338667L208.839111 330.145185C208.839111 334.829037 212.612741 338.640593 217.353481 338.640593L217.353481 338.640593 217.353481 338.640593ZM217.353481 554.799407 673.526519 554.799407C678.229333 554.799407 682.040889 550.987852 682.040889 546.304L682.040889 480.57837C682.154667 480.161185 682.154667 479.819852 682.154667 479.440593 682.154667 474.775704 678.381037 470.964148 673.754074 470.964148L217.353481 470.964148C212.612741 470.964148 208.839111 474.775704 208.839111 479.440593L208.839111 546.360889C208.839111 550.930963 212.612741 554.799407 217.353481 554.799407L217.353481 554.799407 217.353481 554.799407ZM217.353481 770.901333 806.532741 770.901333C811.178667 770.901333 815.047111 767.089778 815.047111 762.405926L815.047111 696.699259C815.104 696.263111 815.104 695.940741 815.104 695.542519 815.104 690.87763 811.33037 687.066074 806.760296 687.066074L217.353481 687.066074C212.612741 687.066074 208.839111 690.87763 208.839111 695.542519L208.839111 762.462815C208.839111 767.089778 212.612741 770.901333 217.353481 770.901333L217.353481 770.901333 217.353481 770.901333Z" fill="#23282D" transform="translate(731.7625122070312, 296.2750015258789) scale(0.013671875)"></path></g><g id="685cb85b15fb"><rect x="639.7625122070312" y="331.4625015258789" rx="1px" ry="1px" width="107" height="21" style="fill: transparent; stroke:none;"></rect><g><text text-anchor="start" align="top" anchor="start" font-size="13px" font-weight="400" fill="rgb(35, 40, 45)" style="font-size:13px;font-family: 微软雅黑;color:#23282D;font-style:normal;text-align:left;font-weight:400;font-style: normal;"><tspan x="647.7625122070312" y="347.44998931884766"><tspan>如果内存不规整</tspan></tspan></text></g></g><g id="bc2f0b943589"><rect x="770.7625122070312" y="318.37500762939453" rx="1px" ry="1px" width="159" height="21" style="fill: transparent; stroke:none;"></rect><g><text text-anchor="start" align="top" anchor="start" font-size="13px" font-weight="400" fill="rgb(35, 40, 45)" style="font-size:13px;font-family: 微软雅黑;color:#23282D;font-style:normal;text-align:left;font-weight:400;font-style: normal;"><tspan x="778.7625122070312" y="334.3624954223633"><tspan>虚拟机需要维护一个列表</tspan></tspan></text></g></g><g id="261c4ae6eb8f"><rect x="770.7625122070312" y="344.56250762939453" rx="1px" ry="1px" width="116" height="21" style="fill: transparent; stroke:none;"></rect><g><text text-anchor="start" align="top" anchor="start" font-size="13px" font-weight="400" fill="rgb(35, 40, 45)" style="font-size:13px;font-family: 微软雅黑;color:#23282D;font-style:normal;text-align:left;font-weight:400;font-style: normal;"><tspan x="778.7625122070312" y="360.5499954223633"><tspan>空闲列表分配</tspan></tspan></text></g><path d="M906.372741 0.018963C960.777481 0.075852 1005.131852 44.126815 1005.131852 98.49363L1005.131852 98.49363 1005.131852 98.49363 1005.131852 925.525333C1005.131852 979.892148 960.777481 1024 906.221037 1024L117.835852 1024C63.16563 1024 18.868148 979.892148 18.868148 925.525333L18.868148 98.49363C18.868148 44.126815 63.222519 0.018963 117.835852 0.018963M925.980444 74.088296 93.790815 74.088296 93.790815 945.170963 925.866667 945.170963 925.904593 945.170963 925.904593 74.088296 925.980444 74.088296 925.980444 74.088296ZM217.353481 338.640593 449.744593 338.640593C454.428444 338.640593 458.258963 334.829037 458.258963 330.145185L458.258963 264.438519 458.258963 263.338667C458.258963 258.673778 454.428444 254.748444 449.85837 254.748444L217.353481 254.748444C212.612741 254.748444 208.839111 258.673778 208.839111 263.338667L208.839111 330.145185C208.839111 334.829037 212.612741 338.640593 217.353481 338.640593L217.353481 338.640593 217.353481 338.640593ZM217.353481 554.799407 673.526519 554.799407C678.229333 554.799407 682.040889 550.987852 682.040889 546.304L682.040889 480.57837C682.154667 480.161185 682.154667 479.819852 682.154667 479.440593 682.154667 474.775704 678.381037 470.964148 673.754074 470.964148L217.353481 470.964148C212.612741 470.964148 208.839111 474.775704 208.839111 479.440593L208.839111 546.360889C208.839111 550.930963 212.612741 554.799407 217.353481 554.799407L217.353481 554.799407 217.353481 554.799407ZM217.353481 770.901333 806.532741 770.901333C811.178667 770.901333 815.047111 767.089778 815.047111 762.405926L815.047111 696.699259C815.104 696.263111 815.104 695.940741 815.104 695.542519 815.104 690.87763 811.33037 687.066074 806.760296 687.066074L217.353481 687.066074C212.612741 687.066074 208.839111 690.87763 208.839111 695.542519L208.839111 762.462815C208.839111 767.089778 212.612741 770.901333 217.353481 770.901333L217.353481 770.901333 217.353481 770.901333Z" fill="#23282D" transform="translate(862.7625732421875, 348.6500015258789) scale(0.013671875)"></path></g><g id="5473a4f2c0be"><rect x="639.7625122070312" y="370.75000762939453" rx="1px" ry="1px" width="68" height="21" style="fill: transparent; stroke:none;"></rect><g><text text-anchor="start" align="top" anchor="start" font-size="13px" font-weight="400" fill="rgb(35, 40, 45)" style="font-size:13px;font-family: 微软雅黑;color:#23282D;font-style:normal;text-align:left;font-weight:400;font-style: normal;"><tspan x="647.7625122070312" y="386.7374954223633"><tspan>说明</tspan></tspan></text></g><path d="M906.372741 0.018963C960.777481 0.075852 1005.131852 44.126815 1005.131852 98.49363L1005.131852 98.49363 1005.131852 98.49363 1005.131852 925.525333C1005.131852 979.892148 960.777481 1024 906.221037 1024L117.835852 1024C63.16563 1024 18.868148 979.892148 18.868148 925.525333L18.868148 98.49363C18.868148 44.126815 63.222519 0.018963 117.835852 0.018963M925.980444 74.088296 93.790815 74.088296 93.790815 945.170963 925.866667 945.170963 925.904593 945.170963 925.904593 74.088296 925.980444 74.088296 925.980444 74.088296ZM217.353481 338.640593 449.744593 338.640593C454.428444 338.640593 458.258963 334.829037 458.258963 330.145185L458.258963 264.438519 458.258963 263.338667C458.258963 258.673778 454.428444 254.748444 449.85837 254.748444L217.353481 254.748444C212.612741 254.748444 208.839111 258.673778 208.839111 263.338667L208.839111 330.145185C208.839111 334.829037 212.612741 338.640593 217.353481 338.640593L217.353481 338.640593 217.353481 338.640593ZM217.353481 554.799407 673.526519 554.799407C678.229333 554.799407 682.040889 550.987852 682.040889 546.304L682.040889 480.57837C682.154667 480.161185 682.154667 479.819852 682.154667 479.440593 682.154667 474.775704 678.381037 470.964148 673.754074 470.964148L217.353481 470.964148C212.612741 470.964148 208.839111 474.775704 208.839111 479.440593L208.839111 546.360889C208.839111 550.930963 212.612741 554.799407 217.353481 554.799407L217.353481 554.799407 217.353481 554.799407ZM217.353481 770.901333 806.532741 770.901333C811.178667 770.901333 815.047111 767.089778 815.047111 762.405926L815.047111 696.699259C815.104 696.263111 815.104 695.940741 815.104 695.542519 815.104 690.87763 811.33037 687.066074 806.760296 687.066074L217.353481 687.066074C212.612741 687.066074 208.839111 690.87763 208.839111 695.542519L208.839111 762.462815C208.839111 767.089778 212.612741 770.901333 217.353481 770.901333L217.353481 770.901333 217.353481 770.901333Z" fill="#23282D" transform="translate(683.7625122070312, 374.8375015258789) scale(0.013671875)"></path></g><g id="7c0d22cda768"><rect x="476" y="410.0250015258789" rx="1px" ry="1px" width="130" height="21" style="fill: transparent; stroke:none;"></rect><g><text text-anchor="start" align="top" anchor="start" font-size="13px" font-weight="400" fill="rgb(35, 40, 45)" style="font-size:13px;font-family: 微软雅黑;color:#23282D;font-style:normal;text-align:left;font-weight:400;font-style: normal;"><tspan x="484" y="426.01248931884766"><tspan>3.处理并发安全问题</tspan></tspan></text></g></g><g id="265012b00be3"><rect x="630.7625122070312" y="396.93750762939453" rx="1px" ry="1px" width="250" height="21" style="fill: transparent; stroke:none;"></rect><g><text text-anchor="start" align="top" anchor="start" font-size="13px" font-weight="400" fill="rgb(35, 40, 45)" style="font-size:13px;font-family: 微软雅黑;color:#23282D;font-style:normal;text-align:left;font-weight:400;font-style: normal;"><tspan x="638.7625122070312" y="412.9249954223633"><tspan>采用CAS配上失败重试保证更新的原子性</tspan></tspan></text></g></g><g id="582fa2c8a344"><rect x="630.7625122070312" y="423.12500762939453" rx="1px" ry="1px" width="178" height="21" style="fill: transparent; stroke:none;"></rect><g><text text-anchor="start" align="top" anchor="start" font-size="13px" font-weight="400" fill="rgb(35, 40, 45)" style="font-size:13px;font-family: 微软雅黑;color:#23282D;font-style:normal;text-align:left;font-weight:400;font-style: normal;"><tspan x="638.7625122070312" y="439.1124954223633"><tspan>每个线程预先分配一块TLAB</tspan></tspan></text></g></g><g id="6f56180b72ea"><rect x="832.5999755859375" y="423.12500762939453" rx="1px" ry="1px" width="208" height="21" style="fill: transparent; stroke:none;"></rect><g><text text-anchor="start" align="top" anchor="start" font-size="13px" font-weight="400" fill="rgb(35, 40, 45)" style="font-size:13px;font-family: 微软雅黑;color:#23282D;font-style:normal;text-align:left;font-weight:400;font-style: normal;"><tspan x="840.5999755859375" y="439.1124954223633"><tspan>通过-XX:+/-UseTLAB参数来设定</tspan></tspan></text></g></g><g id="4b72d43e80e3"><rect x="476" y="449.31250762939453" rx="1px" ry="1px" width="144" height="21" style="fill: transparent; stroke:none;"></rect><g><text text-anchor="start" align="top" anchor="start" font-size="13px" font-weight="400" fill="rgb(35, 40, 45)" style="font-size:13px;font-family: 微软雅黑;color:#23282D;font-style:normal;text-align:left;font-weight:400;font-style: normal;"><tspan x="484" y="465.2999954223633"><tspan>4.初始化分配到的空间</tspan></tspan></text></g></g><g id="5a94b7b92d0b"><rect x="643.7625122070312" y="449.31250762939453" rx="1px" ry="1px" width="393" height="21" style="fill: transparent; stroke:none;"></rect><g><text text-anchor="start" align="top" anchor="start" font-size="13px" font-weight="400" fill="rgb(35, 40, 45)" style="font-size:13px;font-family: 微软雅黑;color:#23282D;font-style:normal;text-align:left;font-weight:400;font-style: normal;"><tspan x="651.7625122070312" y="465.2999954223633"><tspan>所有属性设置默认值，保证对象实例字段在不赋值时可以直接使用</tspan></tspan></text></g></g><g id="40c1bdcff514"><rect x="476" y="475.50000762939453" rx="1px" ry="1px" width="126" height="21" style="fill: transparent; stroke:none;"></rect><g><text text-anchor="start" align="top" anchor="start" font-size="13px" font-weight="400" fill="rgb(35, 40, 45)" style="font-size:13px;font-family: 微软雅黑;color:#23282D;font-style:normal;text-align:left;font-weight:400;font-style: normal;"><tspan x="484" y="491.4874954223633"><tspan>5.设置对象的头</tspan></tspan></text></g><path d="M906.372741 0.018963C960.777481 0.075852 1005.131852 44.126815 1005.131852 98.49363L1005.131852 98.49363 1005.131852 98.49363 1005.131852 925.525333C1005.131852 979.892148 960.777481 1024 906.221037 1024L117.835852 1024C63.16563 1024 18.868148 979.892148 18.868148 925.525333L18.868148 98.49363C18.868148 44.126815 63.222519 0.018963 117.835852 0.018963M925.980444 74.088296 93.790815 74.088296 93.790815 945.170963 925.866667 945.170963 925.904593 945.170963 925.904593 74.088296 925.980444 74.088296 925.980444 74.088296ZM217.353481 338.640593 449.744593 338.640593C454.428444 338.640593 458.258963 334.829037 458.258963 330.145185L458.258963 264.438519 458.258963 263.338667C458.258963 258.673778 454.428444 254.748444 449.85837 254.748444L217.353481 254.748444C212.612741 254.748444 208.839111 258.673778 208.839111 263.338667L208.839111 330.145185C208.839111 334.829037 212.612741 338.640593 217.353481 338.640593L217.353481 338.640593 217.353481 338.640593ZM217.353481 554.799407 673.526519 554.799407C678.229333 554.799407 682.040889 550.987852 682.040889 546.304L682.040889 480.57837C682.154667 480.161185 682.154667 479.819852 682.154667 479.440593 682.154667 474.775704 678.381037 470.964148 673.754074 470.964148L217.353481 470.964148C212.612741 470.964148 208.839111 474.775704 208.839111 479.440593L208.839111 546.360889C208.839111 550.930963 212.612741 554.799407 217.353481 554.799407L217.353481 554.799407 217.353481 554.799407ZM217.353481 770.901333 806.532741 770.901333C811.178667 770.901333 815.047111 767.089778 815.047111 762.405926L815.047111 696.699259C815.104 696.263111 815.104 695.940741 815.104 695.542519 815.104 690.87763 811.33037 687.066074 806.760296 687.066074L217.353481 687.066074C212.612741 687.066074 208.839111 690.87763 208.839111 695.542519L208.839111 762.462815C208.839111 767.089778 212.612741 770.901333 217.353481 770.901333L217.353481 770.901333 217.353481 770.901333Z" fill="#23282D" transform="translate(578.7625122070312, 479.58753204345703) scale(0.013671875)"></path></g><g id="99fdc13429c0"><rect x="476" y="501.68750762939453" rx="1px" ry="1px" width="186" height="21" style="fill: transparent; stroke:none;"></rect><g><text text-anchor="start" align="top" anchor="start" font-size="13px" font-weight="400" fill="rgb(35, 40, 45)" style="font-size:13px;font-family: 微软雅黑;color:#23282D;font-style:normal;text-align:left;font-weight:400;font-style: normal;"><tspan x="484" y="517.6749954223633"><tspan>6.执行init方法进行初始化</tspan></tspan></text></g><path d="M906.372741 0.018963C960.777481 0.075852 1005.131852 44.126815 1005.131852 98.49363L1005.131852 98.49363 1005.131852 98.49363 1005.131852 925.525333C1005.131852 979.892148 960.777481 1024 906.221037 1024L117.835852 1024C63.16563 1024 18.868148 979.892148 18.868148 925.525333L18.868148 98.49363C18.868148 44.126815 63.222519 0.018963 117.835852 0.018963M925.980444 74.088296 93.790815 74.088296 93.790815 945.170963 925.866667 945.170963 925.904593 945.170963 925.904593 74.088296 925.980444 74.088296 925.980444 74.088296ZM217.353481 338.640593 449.744593 338.640593C454.428444 338.640593 458.258963 334.829037 458.258963 330.145185L458.258963 264.438519 458.258963 263.338667C458.258963 258.673778 454.428444 254.748444 449.85837 254.748444L217.353481 254.748444C212.612741 254.748444 208.839111 258.673778 208.839111 263.338667L208.839111 330.145185C208.839111 334.829037 212.612741 338.640593 217.353481 338.640593L217.353481 338.640593 217.353481 338.640593ZM217.353481 554.799407 673.526519 554.799407C678.229333 554.799407 682.040889 550.987852 682.040889 546.304L682.040889 480.57837C682.154667 480.161185 682.154667 479.819852 682.154667 479.440593 682.154667 474.775704 678.381037 470.964148 673.754074 470.964148L217.353481 470.964148C212.612741 470.964148 208.839111 474.775704 208.839111 479.440593L208.839111 546.360889C208.839111 550.930963 212.612741 554.799407 217.353481 554.799407L217.353481 554.799407 217.353481 554.799407ZM217.353481 770.901333 806.532741 770.901333C811.178667 770.901333 815.047111 767.089778 815.047111 762.405926L815.047111 696.699259C815.104 696.263111 815.104 695.940741 815.104 695.542519 815.104 690.87763 811.33037 687.066074 806.760296 687.066074L217.353481 687.066074C212.612741 687.066074 208.839111 690.87763 208.839111 695.542519L208.839111 762.462815C208.839111 767.089778 212.612741 770.901333 217.353481 770.901333L217.353481 770.901333 217.353481 770.901333Z" fill="#23282D" transform="translate(637.5375366210938, 505.77503204345703) scale(0.013671875)"></path></g><g id="9f4f50349524"><rect x="298" y="114.4124984741211" rx="4px" ry="4px" width="154" height="38" style="fill: #ffffff; stroke:#444;stroke-width:1px;"></rect><g><text text-anchor="start" align="top" anchor="start" font-size="16px" font-weight="normal" fill="rgb(35, 40, 45)" style="font-size:16px;font-family: 微软雅黑;color:#23282D;font-style:normal;text-align:left;font-weight:normal;font-style: normal;"><tspan x="319" y="138.68749237060547"><tspan>创建对象的方式</tspan></tspan></text></g></g><g id="531cde8077d2"><rect x="476" y="56.18749237060547" rx="1px" ry="1px" width="46" height="21" style="fill: transparent; stroke:none;"></rect><g><text text-anchor="start" align="top" anchor="start" font-size="13px" font-weight="400" fill="rgb(35, 40, 45)" style="font-size:13px;font-family: 微软雅黑;color:#23282D;font-style:normal;text-align:left;font-weight:400;font-style: normal;"><tspan x="484" y="72.17499542236328"><tspan>new</tspan></tspan></text></g></g><g id="093f636c50bf"><rect x="546" y="30" rx="1px" ry="1px" width="94" height="21" style="fill: transparent; stroke:none;"></rect><g><text text-anchor="start" align="top" anchor="start" font-size="13px" font-weight="400" fill="rgb(35, 40, 45)" style="font-size:13px;font-family: 微软雅黑;color:#23282D;font-style:normal;text-align:left;font-weight:400;font-style: normal;"><tspan x="554" y="45.98749542236328"><tspan>最常见的方式</tspan></tspan></text></g></g><g id="34f145153f9e"><rect x="546" y="56.18749237060547" rx="1px" ry="1px" width="149" height="21" style="fill: transparent; stroke:none;"></rect><g><text text-anchor="start" align="top" anchor="start" font-size="13px" font-weight="400" fill="rgb(35, 40, 45)" style="font-size:13px;font-family: 微软雅黑;color:#23282D;font-style:normal;text-align:left;font-weight:400;font-style: normal;"><tspan x="554" y="72.17499542236328"><tspan>变形1：Xxx的静态方法</tspan></tspan></text></g></g><g id="043e7dd7bdb9"><rect x="546" y="82.37499237060547" rx="1px" ry="1px" width="266" height="21" style="fill: transparent; stroke:none;"></rect><g><text text-anchor="start" align="top" anchor="start" font-size="13px" font-weight="400" fill="rgb(35, 40, 45)" style="font-size:13px;font-family: 微软雅黑;color:#23282D;font-style:normal;text-align:left;font-weight:400;font-style: normal;"><tspan x="554" y="98.36249542236328"><tspan>变形2：XxxBuilder/XxxFactory的静态方法</tspan></tspan></text></g></g><g id="aa9d790c4c46"><rect x="476" y="108.56249237060547" rx="1px" ry="1px" width="470" height="21" style="fill: transparent; stroke:none;"></rect><g><text text-anchor="start" align="top" anchor="start" font-size="13px" font-weight="400" fill="rgb(35, 40, 45)" style="font-size:13px;font-family: 微软雅黑;color:#23282D;font-style:normal;text-align:left;font-weight:400;font-style: normal;"><tspan x="484" y="124.54999542236328"><tspan>Class的newInstance()：反射的方式，只能调用空参构造器，权限必须是public</tspan></tspan></text></g></g><g id="6ee4e6954b42"><rect x="476" y="134.74999237060547" rx="1px" ry="1px" width="561" height="21" style="fill: transparent; stroke:none;"></rect><g><text text-anchor="start" align="top" anchor="start" font-size="13px" font-weight="400" fill="rgb(35, 40, 45)" style="font-size:13px;font-family: 微软雅黑;color:#23282D;font-style:normal;text-align:left;font-weight:400;font-style: normal;"><tspan x="484" y="150.73749542236328"><tspan>Constructor的newInstance(Xxx)：反射的空参：可以调用空参、带参的构造器，权限没有要求</tspan></tspan></text></g></g><g id="9ed93665fcff"><rect x="476" y="160.93749237060547" rx="1px" ry="1px" width="474" height="21" style="fill: transparent; stroke:none;"></rect><g><text text-anchor="start" align="top" anchor="start" font-size="13px" font-weight="400" fill="rgb(35, 40, 45)" style="font-size:13px;font-family: 微软雅黑;color:#23282D;font-style:normal;text-align:left;font-weight:400;font-style: normal;"><tspan x="484" y="176.92499542236328"><tspan>使用clone()：不调用任何构造器，当前类需要实现Cloneable接口，实现clone()</tspan></tspan></text></g></g><g id="e497ff336f29"><rect x="476" y="187.12500762939453" rx="1px" ry="1px" width="328" height="21" style="fill: transparent; stroke:none;"></rect><g><text text-anchor="start" align="top" anchor="start" font-size="13px" font-weight="400" fill="rgb(35, 40, 45)" style="font-size:13px;font-family: 微软雅黑;color:#23282D;font-style:normal;text-align:left;font-weight:400;font-style: normal;"><tspan x="484" y="203.11249542236328"><tspan>使用反序列化：从文件中、网络中获取对象的二进制流</tspan></tspan></text></g></g><g id="f1ce7fb7091c"><rect x="476" y="213.31250762939453" rx="1px" ry="1px" width="129" height="21" style="fill: transparent; stroke:none;"></rect><g><text text-anchor="start" align="top" anchor="start" font-size="13px" font-weight="400" fill="rgb(35, 40, 45)" style="font-size:13px;font-family: 微软雅黑;color:#23282D;font-style:normal;text-align:left;font-weight:400;font-style: normal;"><tspan x="484" y="229.29999542236328"><tspan>第三方库Objenesis</tspan></tspan></text></g></g><g transform="translate(298, 266.00000762939453)" id="sdjakdjak0"><g id="subline_3c814f478555" transform="translate(0.5,-0.5)"><path id="line_b3e55d0c41d7" d="M 154 129 L 172 129 L 172 26 A 4 4 0 0 1 176 22 L 474 22" p="3c814f478555" stroke="#8A8A8A" fill="none" stroke-linecap="square" stroke-width="1"></path><path id="line_e855de50e497" d="M 154 129 L 172 129 L 172 91 A 4 4 0 0 1 176 87 L 318 87" p="3c814f478555" stroke="#8A8A8A" fill="none" stroke-linecap="square" stroke-width="1"></path><path id="line_4ee7045da8a0" d="M 318 87 L 336 87 L 336 52 A 4 4 0 0 1 340 48 L 457.76251220703125 48" p="e855de50e497" stroke="#8A8A8A" fill="none" stroke-linecap="square" stroke-width="1"></path><path id="line_685cb85b15fb" d="M 318 87 L 336 87 L 336 87 L 448.76251220703125 87" p="e855de50e497" stroke="#8A8A8A" fill="none" stroke-linecap="square" stroke-width="1"></path><path id="line_bc2f0b943589" d="M 448.76251220703125 87 L 467 87 L 467 74 L 631.7625122070312 74" p="685cb85b15fb" stroke="#8A8A8A" fill="none" stroke-linecap="square" stroke-width="1"></path><path id="line_261c4ae6eb8f" d="M 448.76251220703125 87 L 467 87 L 467 101 L 588.7625122070312 101" p="685cb85b15fb" stroke="#8A8A8A" fill="none" stroke-linecap="square" stroke-width="1"></path><path id="line_5473a4f2c0be" d="M 318 87 L 336 87 L 336 123 A 4 4 0 0 0 340 127 L 409.76251220703125 127" p="e855de50e497" stroke="#8A8A8A" fill="none" stroke-linecap="square" stroke-width="1"></path><path id="line_7c0d22cda768" d="M 154 129 L 172 129 L 172 166 L 308 166" p="3c814f478555" stroke="#8A8A8A" fill="none" stroke-linecap="square" stroke-width="1"></path><path id="line_265012b00be3" d="M 308 166 L 326 166 L 326 153 L 582.7625122070312 153" p="7c0d22cda768" stroke="#8A8A8A" fill="none" stroke-linecap="square" stroke-width="1"></path><path id="line_582fa2c8a344" d="M 308 166 L 326 166 L 326 179 L 510.76251220703125 179" p="7c0d22cda768" stroke="#8A8A8A" fill="none" stroke-linecap="square" stroke-width="1"></path><path id="line_6f56180b72ea" d="M 510.76251220703125 179 L 529 179 L 529 179 L 742.5999755859375 179" p="582fa2c8a344" stroke="#8A8A8A" fill="none" stroke-linecap="square" stroke-width="1"></path><path id="line_4b72d43e80e3" d="M 154 129 L 172 129 L 172 201 A 4 4 0 0 0 176 205 L 322 205" p="3c814f478555" stroke="#8A8A8A" fill="none" stroke-linecap="square" stroke-width="1"></path><path id="line_5a94b7b92d0b" d="M 322 205 L 340 205 L 340 205 L 738.7625122070312 205" p="4b72d43e80e3" stroke="#8A8A8A" fill="none" stroke-linecap="square" stroke-width="1"></path><path id="line_40c1bdcff514" d="M 154 129 L 172 129 L 172 228 A 4 4 0 0 0 176 232 L 304 232" p="3c814f478555" stroke="#8A8A8A" fill="none" stroke-linecap="square" stroke-width="1"></path><path id="line_99fdc13429c0" d="M 154 129 L 172 129 L 172 254 A 4 4 0 0 0 176 258 L 364 258" p="3c814f478555" stroke="#8A8A8A" fill="none" stroke-linecap="square" stroke-width="1"></path></g><g transform="translate(0.5,0)"></g><g class="svg-summary-con" transform="translate(0.5,0.5)"></g><g class="svg-boundary-con" transform="translate(0.5,0.5)"></g></g><g transform="translate(298, 30)" id="sdjakdjak1"><g id="subline_9f4f50349524" transform="translate(0.5,-0.5)"><path id="line_531cde8077d2" d="M 154 102.5 L 172 102.5 L 172 52 A 4 4 0 0 1 176 48 L 224 48" p="9f4f50349524" stroke="#8A8A8A" fill="none" stroke-linecap="square" stroke-width="1"></path><path id="line_093f636c50bf" d="M 224 48 L 242 48 L 242 26 A 4 4 0 0 1 246 22 L 342 22" p="531cde8077d2" stroke="#8A8A8A" fill="none" stroke-linecap="square" stroke-width="1"></path><path id="line_34f145153f9e" d="M 224 48 L 242 48 L 242 48 L 397 48" p="531cde8077d2" stroke="#8A8A8A" fill="none" stroke-linecap="square" stroke-width="1"></path><path id="line_043e7dd7bdb9" d="M 224 48 L 242 48 L 242 70 A 4 4 0 0 0 246 74 L 514 74" p="531cde8077d2" stroke="#8A8A8A" fill="none" stroke-linecap="square" stroke-width="1"></path><path id="line_aa9d790c4c46" d="M 154 102.5 L 172 102.5 L 172 101 L 648 101" p="9f4f50349524" stroke="#8A8A8A" fill="none" stroke-linecap="square" stroke-width="1"></path><path id="line_6ee4e6954b42" d="M 154 102.5 L 172 102.5 L 172 127 L 739 127" p="9f4f50349524" stroke="#8A8A8A" fill="none" stroke-linecap="square" stroke-width="1"></path><path id="line_9ed93665fcff" d="M 154 102.5 L 172 102.5 L 172 149 A 4 4 0 0 0 176 153 L 652 153" p="9f4f50349524" stroke="#8A8A8A" fill="none" stroke-linecap="square" stroke-width="1"></path><path id="line_e497ff336f29" d="M 154 102.5 L 172 102.5 L 172 175 A 4 4 0 0 0 176 179 L 506 179" p="9f4f50349524" stroke="#8A8A8A" fill="none" stroke-linecap="square" stroke-width="1"></path><path id="line_f1ce7fb7091c" d="M 154 102.5 L 172 102.5 L 172 201 A 4 4 0 0 0 176 205 L 307 205" p="9f4f50349524" stroke="#8A8A8A" fill="none" stroke-linecap="square" stroke-width="1"></path></g><g transform="translate(0.5,0)"></g><g class="svg-summary-con" transform="translate(0.5,0.5)"></g><g class="svg-boundary-con" transform="translate(0.5,0.5)"></g></g><g transform="translate(30, 247.00000762939453)" id="sdjakdjak2"><g id="subline_root" transform="translate(0.5,-0.5)"></g><g transform="translate(0.5,0)"></g><g class="svg-summary-con" transform="translate(0.5,0.5)"></g><g class="svg-boundary-con" transform="translate(0.5,0.5)"></g></g><g id="root"><rect x="30" y="247.00000762939453" rx="6px" ry="6px" width="218" height="61" style="fill: #50C28B; stroke:#50C28B;stroke-width:2px;"></rect><g><text text-anchor="start" align="top" anchor="start" font-size="25px" font-weight="normal" fill="rgb(255, 255, 255)" style="font-size:25px;font-family: 微软雅黑;color:#fff;font-style:normal;text-align:left;font-weight:normal;font-style: normal;"><tspan x="64" y="286.1500015258789"><tspan>对象的实例化</tspan></tspan></text></g></g></svg>
